<svg id="visual" viewBox="0 0 1831 888" width="1831" height="888" xmlns="http://www.w3.org/2000/svg" xmlns:xlink="http://www.w3.org/1999/xlink" version="1.1"><rect x="0" y="0" width="1831" height="888" fill="#001220"></rect><path d="M0 756L18 763.5C36 771 72 786 107.8 787.3C143.7 788.7 179.3 776.3 215.2 769.2C251 762 287 760 323 764.7C359 769.3 395 780.7 431 786.5C467 792.3 503 792.7 538.8 788.7C574.7 784.7 610.3 776.3 646.2 768C682 759.7 718 751.3 754 755.7C790 760 826 777 861.8 781.3C897.7 785.7 933.3 777.3 969.2 775.3C1005 773.3 1041 777.7 1077 781C1113 784.3 1149 786.7 1184.8 788.7C1220.7 790.7 1256.3 792.3 1292.2 786.7C1328 781 1364 768 1400 767.7C1436 767.3 1472 779.7 1508 777.7C1544 775.7 1580 759.3 1615.8 752.8C1651.7 746.3 1687.3 749.7 1723.2 753C1759 756.3 1795 759.7 1813 761.3L1831 763L1831 889L1813 889C1795 889 1759 889 1723.2 889C1687.3 889 1651.7 889 1615.8 889C1580 889 1544 889 1508 889C1472 889 1436 889 1400 889C1364 889 1328 889 1292.2 889C1256.3 889 1220.7 889 1184.8 889C1149 889 1113 889 1077 889C1041 889 1005 889 969.2 889C933.3 889 897.7 889 861.8 889C826 889 790 889 754 889C718 889 682 889 646.2 889C610.3 889 574.7 889 538.8 889C503 889 467 889 431 889C395 889 359 889 323 889C287 889 251 889 215.2 889C179.3 889 143.7 889 107.8 889C72 889 36 889 18 889L0 889Z" fill="#fa7268"></path><path d="M0 789L18 787.5C36 786 72 783 107.8 780.3C143.7 777.7 179.3 775.3 215.2 781C251 786.7 287 800.3 323 804.8C359 809.3 395 804.7 431 798C467 791.3 503 782.7 538.8 779.8C574.7 777 610.3 780 646.2 779.7C682 779.3 718 775.7 754 782.2C790 788.7 826 805.3 861.8 807C897.7 808.7 933.3 795.3 969.2 789C1005 782.7 1041 783.3 1077 789.7C1113 796 1149 808 1184.8 807.8C1220.7 807.7 1256.3 795.3 1292.2 787.3C1328 779.3 1364 775.7 1400 780.3C1436 785 1472 798 1508 802C1544 806 1580 801 1615.8 798.5C1651.7 796 1687.3 796 1723.2 794.5C1759 793 1795 790 1813 788.5L1831 787L1831 889L1813 889C1795 889 1759 889 1723.2 889C1687.3 889 1651.7 889 1615.8 889C1580 889 1544 889 1508 889C1472 889 1436 889 1400 889C1364 889 1328 889 1292.2 889C1256.3 889 1220.7 889 1184.8 889C1149 889 1113 889 1077 889C1041 889 1005 889 969.2 889C933.3 889 897.7 889 861.8 889C826 889 790 889 754 889C718 889 682 889 646.2 889C610.3 889 574.7 889 538.8 889C503 889 467 889 431 889C395 889 359 889 323 889C287 889 251 889 215.2 889C179.3 889 143.7 889 107.8 889C72 889 36 889 18 889L0 889Z" fill="#eb5967"></path><path d="M0 833L18 832.2C36 831.3 72 829.7 107.8 829C143.7 828.3 179.3 828.7 215.2 829.8C251 831 287 833 323 829.8C359 826.7 395 818.3 431 818.2C467 818 503 826 538.8 828.5C574.7 831 610.3 828 646.2 827.8C682 827.7 718 830.3 754 831C790 831.7 826 830.3 861.8 827.8C897.7 825.3 933.3 821.7 969.2 823.7C1005 825.7 1041 833.3 1077 835.3C1113 837.3 1149 833.7 1184.8 829.2C1220.7 824.7 1256.3 819.3 1292.2 818.3C1328 817.3 1364 820.7 1400 822.8C1436 825 1472 826 1508 826.7C1544 827.3 1580 827.7 1615.8 830.3C1651.7 833 1687.3 838 1723.2 837C1759 836 1795 829 1813 825.5L1831 822L1831 889L1813 889C1795 889 1759 889 1723.2 889C1687.3 889 1651.7 889 1615.8 889C1580 889 1544 889 1508 889C1472 889 1436 889 1400 889C1364 889 1328 889 1292.2 889C1256.3 889 1220.7 889 1184.8 889C1149 889 1113 889 1077 889C1041 889 1005 889 969.2 889C933.3 889 897.7 889 861.8 889C826 889 790 889 754 889C718 889 682 889 646.2 889C610.3 889 574.7 889 538.8 889C503 889 467 889 431 889C395 889 359 889 323 889C287 889 251 889 215.2 889C179.3 889 143.7 889 107.8 889C72 889 36 889 18 889L0 889Z" fill="#da3f67"></path><path d="M0 844L18 844.8C36 845.7 72 847.3 107.8 848.3C143.7 849.3 179.3 849.7 215.2 847.5C251 845.3 287 840.7 323 838.5C359 836.3 395 836.7 431 839.8C467 843 503 849 538.8 850C574.7 851 610.3 847 646.2 845C682 843 718 843 754 843.8C790 844.7 826 846.3 861.8 850.2C897.7 854 933.3 860 969.2 859.8C1005 859.7 1041 853.3 1077 851.7C1113 850 1149 853 1184.8 853.3C1220.7 853.7 1256.3 851.3 1292.2 853.5C1328 855.7 1364 862.3 1400 861.8C1436 861.3 1472 853.7 1508 848.5C1544 843.3 1580 840.7 1615.8 844.3C1651.7 848 1687.3 858 1723.2 858.3C1759 858.7 1795 849.3 1813 844.7L1831 840L1831 889L1813 889C1795 889 1759 889 1723.2 889C1687.3 889 1651.7 889 1615.8 889C1580 889 1544 889 1508 889C1472 889 1436 889 1400 889C1364 889 1328 889 1292.2 889C1256.3 889 1220.7 889 1184.8 889C1149 889 1113 889 1077 889C1041 889 1005 889 969.2 889C933.3 889 897.7 889 861.8 889C826 889 790 889 754 889C718 889 682 889 646.2 889C610.3 889 574.7 889 538.8 889C503 889 467 889 431 889C395 889 359 889 323 889C287 889 251 889 215.2 889C179.3 889 143.7 889 107.8 889C72 889 36 889 18 889L0 889Z" fill="#c62368"></path></svg>