<svg id="visual" viewBox="0 0 1831 888" width="1831" height="888" xmlns="http://www.w3.org/2000/svg" xmlns:xlink="http://www.w3.org/1999/xlink" version="1.1"><rect x="0" y="0" width="1831" height="888" fill="#001220"></rect><path d="M0 687L14.5 695C29 703 58 719 87 717.7C116 716.3 145 697.7 174.2 693C203.3 688.3 232.7 697.7 261.8 702.8C291 708 320 709 349 712.3C378 715.7 407 721.3 436 722.7C465 724 494 721 523 717.5C552 714 581 710 610.2 705.3C639.3 700.7 668.7 695.3 697.8 689.2C727 683 756 676 785 678.7C814 681.3 843 693.7 872 707C901 720.3 930 734.7 959 731.7C988 728.7 1017 708.3 1046 702.2C1075 696 1104 704 1133.2 707.7C1162.3 711.3 1191.7 710.7 1220.8 711.8C1250 713 1279 716 1308 716.8C1337 717.7 1366 716.3 1395 712.5C1424 708.7 1453 702.3 1482 699C1511 695.7 1540 695.3 1569.2 703.8C1598.3 712.3 1627.7 729.7 1656.8 733.7C1686 737.7 1715 728.3 1744 716.2C1773 704 1802 689 1816.5 681.5L1831 674L1831 889L1816.5 889C1802 889 1773 889 1744 889C1715 889 1686 889 1656.8 889C1627.7 889 1598.3 889 1569.2 889C1540 889 1511 889 1482 889C1453 889 1424 889 1395 889C1366 889 1337 889 1308 889C1279 889 1250 889 1220.8 889C1191.7 889 1162.3 889 1133.2 889C1104 889 1075 889 1046 889C1017 889 988 889 959 889C930 889 901 889 872 889C843 889 814 889 785 889C756 889 727 889 697.8 889C668.7 889 639.3 889 610.2 889C581 889 552 889 523 889C494 889 465 889 436 889C407 889 378 889 349 889C320 889 291 889 261.8 889C232.7 889 203.3 889 174.2 889C145 889 116 889 87 889C58 889 29 889 14.5 889L0 889Z" fill="#fa7268"></path><path d="M0 736L14.5 740.3C29 744.7 58 753.3 87 748.2C116 743 145 724 174.2 720.7C203.3 717.3 232.7 729.7 261.8 736.3C291 743 320 744 349 740.7C378 737.3 407 729.7 436 728.8C465 728 494 734 523 740.5C552 747 581 754 610.2 752.3C639.3 750.7 668.7 740.3 697.8 731.8C727 723.3 756 716.7 785 719.7C814 722.7 843 735.3 872 740.2C901 745 930 742 959 737.8C988 733.7 1017 728.3 1046 726.8C1075 725.3 1104 727.7 1133.2 730.8C1162.3 734 1191.7 738 1220.8 741.7C1250 745.3 1279 748.7 1308 743.2C1337 737.7 1366 723.3 1395 723.8C1424 724.3 1453 739.7 1482 741.7C1511 743.7 1540 732.3 1569.2 733.2C1598.3 734 1627.7 747 1656.8 746.7C1686 746.3 1715 732.7 1744 729C1773 725.3 1802 731.7 1816.5 734.8L1831 738L1831 889L1816.5 889C1802 889 1773 889 1744 889C1715 889 1686 889 1656.8 889C1627.7 889 1598.3 889 1569.2 889C1540 889 1511 889 1482 889C1453 889 1424 889 1395 889C1366 889 1337 889 1308 889C1279 889 1250 889 1220.8 889C1191.7 889 1162.3 889 1133.2 889C1104 889 1075 889 1046 889C1017 889 988 889 959 889C930 889 901 889 872 889C843 889 814 889 785 889C756 889 727 889 697.8 889C668.7 889 639.3 889 610.2 889C581 889 552 889 523 889C494 889 465 889 436 889C407 889 378 889 349 889C320 889 291 889 261.8 889C232.7 889 203.3 889 174.2 889C145 889 116 889 87 889C58 889 29 889 14.5 889L0 889Z" fill="#f16367"></path><path d="M0 731L14.5 732.5C29 734 58 737 87 739.5C116 742 145 744 174.2 745.7C203.3 747.3 232.7 748.7 261.8 746.7C291 744.7 320 739.3 349 744C378 748.7 407 763.3 436 765.2C465 767 494 756 523 754.5C552 753 581 761 610.2 760.5C639.3 760 668.7 751 697.8 755.5C727 760 756 778 785 778.7C814 779.3 843 762.7 872 752.3C901 742 930 738 959 743.7C988 749.3 1017 764.7 1046 764.2C1075 763.7 1104 747.3 1133.2 742C1162.3 736.7 1191.7 742.3 1220.8 751.3C1250 760.3 1279 772.7 1308 775.3C1337 778 1366 771 1395 764.8C1424 758.7 1453 753.3 1482 749C1511 744.7 1540 741.3 1569.2 741.8C1598.3 742.3 1627.7 746.7 1656.8 747.2C1686 747.7 1715 744.3 1744 745.2C1773 746 1802 751 1816.5 753.5L1831 756L1831 889L1816.5 889C1802 889 1773 889 1744 889C1715 889 1686 889 1656.8 889C1627.7 889 1598.3 889 1569.2 889C1540 889 1511 889 1482 889C1453 889 1424 889 1395 889C1366 889 1337 889 1308 889C1279 889 1250 889 1220.8 889C1191.7 889 1162.3 889 1133.2 889C1104 889 1075 889 1046 889C1017 889 988 889 959 889C930 889 901 889 872 889C843 889 814 889 785 889C756 889 727 889 697.8 889C668.7 889 639.3 889 610.2 889C581 889 552 889 523 889C494 889 465 889 436 889C407 889 378 889 349 889C320 889 291 889 261.8 889C232.7 889 203.3 889 174.2 889C145 889 116 889 87 889C58 889 29 889 14.5 889L0 889Z" fill="#e85467"></path><path d="M0 809L14.5 801.7C29 794.3 58 779.7 87 780C116 780.3 145 795.7 174.2 804.7C203.3 813.7 232.7 816.3 261.8 808.7C291 801 320 783 349 777.3C378 771.7 407 778.3 436 780.8C465 783.3 494 781.7 523 784.5C552 787.3 581 794.7 610.2 798.7C639.3 802.7 668.7 803.3 697.8 800.5C727 797.7 756 791.3 785 790.7C814 790 843 795 872 792.3C901 789.7 930 779.3 959 782C988 784.7 1017 800.3 1046 806.8C1075 813.3 1104 810.7 1133.2 808.8C1162.3 807 1191.7 806 1220.8 802.8C1250 799.7 1279 794.3 1308 790.5C1337 786.7 1366 784.3 1395 781.2C1424 778 1453 774 1482 777.8C1511 781.7 1540 793.3 1569.2 799.3C1598.3 805.3 1627.7 805.7 1656.8 802.3C1686 799 1715 792 1744 789.7C1773 787.3 1802 789.7 1816.5 790.8L1831 792L1831 889L1816.5 889C1802 889 1773 889 1744 889C1715 889 1686 889 1656.8 889C1627.7 889 1598.3 889 1569.2 889C1540 889 1511 889 1482 889C1453 889 1424 889 1395 889C1366 889 1337 889 1308 889C1279 889 1250 889 1220.8 889C1191.7 889 1162.3 889 1133.2 889C1104 889 1075 889 1046 889C1017 889 988 889 959 889C930 889 901 889 872 889C843 889 814 889 785 889C756 889 727 889 697.8 889C668.7 889 639.3 889 610.2 889C581 889 552 889 523 889C494 889 465 889 436 889C407 889 378 889 349 889C320 889 291 889 261.8 889C232.7 889 203.3 889 174.2 889C145 889 116 889 87 889C58 889 29 889 14.5 889L0 889Z" fill="#de4467"></path><path d="M0 803L14.5 806.5C29 810 58 817 87 821.5C116 826 145 828 174.2 824.3C203.3 820.7 232.7 811.3 261.8 813.7C291 816 320 830 349 834.8C378 839.7 407 835.3 436 831C465 826.7 494 822.3 523 823.2C552 824 581 830 610.2 827.3C639.3 824.7 668.7 813.3 697.8 807.8C727 802.3 756 802.7 785 808.7C814 814.7 843 826.3 872 830.7C901 835 930 832 959 830.3C988 828.7 1017 828.3 1046 828.8C1075 829.3 1104 830.7 1133.2 828.5C1162.3 826.3 1191.7 820.7 1220.8 819.8C1250 819 1279 823 1308 822.8C1337 822.7 1366 818.3 1395 813.7C1424 809 1453 804 1482 804.7C1511 805.3 1540 811.7 1569.2 814.7C1598.3 817.7 1627.7 817.3 1656.8 817.8C1686 818.3 1715 819.7 1744 822.5C1773 825.3 1802 829.7 1816.5 831.8L1831 834L1831 889L1816.5 889C1802 889 1773 889 1744 889C1715 889 1686 889 1656.8 889C1627.7 889 1598.3 889 1569.2 889C1540 889 1511 889 1482 889C1453 889 1424 889 1395 889C1366 889 1337 889 1308 889C1279 889 1250 889 1220.8 889C1191.7 889 1162.3 889 1133.2 889C1104 889 1075 889 1046 889C1017 889 988 889 959 889C930 889 901 889 872 889C843 889 814 889 785 889C756 889 727 889 697.8 889C668.7 889 639.3 889 610.2 889C581 889 552 889 523 889C494 889 465 889 436 889C407 889 378 889 349 889C320 889 291 889 261.8 889C232.7 889 203.3 889 174.2 889C145 889 116 889 87 889C58 889 29 889 14.5 889L0 889Z" fill="#d23467"></path><path d="M0 838L14.5 842.8C29 847.7 58 857.3 87 861.2C116 865 145 863 174.2 859.7C203.3 856.3 232.7 851.7 261.8 852.5C291 853.3 320 859.7 349 862C378 864.3 407 862.7 436 858.3C465 854 494 847 523 844.8C552 842.7 581 845.3 610.2 845.2C639.3 845 668.7 842 697.8 844C727 846 756 853 785 856.3C814 859.7 843 859.3 872 860.5C901 861.7 930 864.3 959 864.5C988 864.7 1017 862.3 1046 861.8C1075 861.3 1104 862.7 1133.2 858.3C1162.3 854 1191.7 844 1220.8 840.5C1250 837 1279 840 1308 841.8C1337 843.7 1366 844.3 1395 846C1424 847.7 1453 850.3 1482 849C1511 847.7 1540 842.3 1569.2 840.2C1598.3 838 1627.7 839 1656.8 840.5C1686 842 1715 844 1744 847.8C1773 851.7 1802 857.3 1816.5 860.2L1831 863L1831 889L1816.5 889C1802 889 1773 889 1744 889C1715 889 1686 889 1656.8 889C1627.7 889 1598.3 889 1569.2 889C1540 889 1511 889 1482 889C1453 889 1424 889 1395 889C1366 889 1337 889 1308 889C1279 889 1250 889 1220.8 889C1191.7 889 1162.3 889 1133.2 889C1104 889 1075 889 1046 889C1017 889 988 889 959 889C930 889 901 889 872 889C843 889 814 889 785 889C756 889 727 889 697.8 889C668.7 889 639.3 889 610.2 889C581 889 552 889 523 889C494 889 465 889 436 889C407 889 378 889 349 889C320 889 291 889 261.8 889C232.7 889 203.3 889 174.2 889C145 889 116 889 87 889C58 889 29 889 14.5 889L0 889Z" fill="#c62368"></path></svg>