<svg id="visual" viewBox="0 0 1831 888" width="1831" height="888" xmlns="http://www.w3.org/2000/svg" xmlns:xlink="http://www.w3.org/1999/xlink" version="1.1"><rect x="0" y="0" width="1831" height="888" fill="#001220"></rect><path d="M0 756L43.7 757C87.3 758 174.7 760 261.8 765.7C349 771.3 436 780.7 523.2 777.5C610.3 774.3 697.7 758.7 784.8 755.3C872 752 959 761 1046.2 769.3C1133.3 777.7 1220.7 785.3 1307.8 782C1395 778.7 1482 764.3 1569.2 758.8C1656.3 753.3 1743.7 756.7 1787.3 758.3L1831 760L1831 889L1787.3 889C1743.7 889 1656.3 889 1569.2 889C1482 889 1395 889 1307.8 889C1220.7 889 1133.3 889 1046.2 889C959 889 872 889 784.8 889C697.7 889 610.3 889 523.2 889C436 889 349 889 261.8 889C174.7 889 87.3 889 43.7 889L0 889Z" fill="#fa7268"></path><path d="M0 767L43.7 772C87.3 777 174.7 787 261.8 792.8C349 798.7 436 800.3 523.2 799.8C610.3 799.3 697.7 796.7 784.8 799.2C872 801.7 959 809.3 1046.2 807.8C1133.3 806.3 1220.7 795.7 1307.8 787C1395 778.3 1482 771.7 1569.2 771.7C1656.3 771.7 1743.7 778.3 1787.3 781.7L1831 785L1831 889L1787.3 889C1743.7 889 1656.3 889 1569.2 889C1482 889 1395 889 1307.8 889C1220.7 889 1133.3 889 1046.2 889C959 889 872 889 784.8 889C697.7 889 610.3 889 523.2 889C436 889 349 889 261.8 889C174.7 889 87.3 889 43.7 889L0 889Z" fill="#ef5f67"></path><path d="M0 797L43.7 802.3C87.3 807.7 174.7 818.3 261.8 820.7C349 823 436 817 523.2 815.8C610.3 814.7 697.7 818.3 784.8 820.8C872 823.3 959 824.7 1046.2 820.3C1133.3 816 1220.7 806 1307.8 804.7C1395 803.3 1482 810.7 1569.2 810.5C1656.3 810.3 1743.7 802.7 1787.3 798.8L1831 795L1831 889L1787.3 889C1743.7 889 1656.3 889 1569.2 889C1482 889 1395 889 1307.8 889C1220.7 889 1133.3 889 1046.2 889C959 889 872 889 784.8 889C697.7 889 610.3 889 523.2 889C436 889 349 889 261.8 889C174.7 889 87.3 889 43.7 889L0 889Z" fill="#e34c67"></path><path d="M0 846L43.7 845.2C87.3 844.3 174.7 842.7 261.8 837.8C349 833 436 825 523.2 822.2C610.3 819.3 697.7 821.7 784.8 825.7C872 829.7 959 835.3 1046.2 835.7C1133.3 836 1220.7 831 1307.8 831.3C1395 831.7 1482 837.3 1569.2 837.7C1656.3 838 1743.7 833 1787.3 830.5L1831 828L1831 889L1787.3 889C1743.7 889 1656.3 889 1569.2 889C1482 889 1395 889 1307.8 889C1220.7 889 1133.3 889 1046.2 889C959 889 872 889 784.8 889C697.7 889 610.3 889 523.2 889C436 889 349 889 261.8 889C174.7 889 87.3 889 43.7 889L0 889Z" fill="#d53867"></path><path d="M0 861L43.7 860C87.3 859 174.7 857 261.8 855.5C349 854 436 853 523.2 853.3C610.3 853.7 697.7 855.3 784.8 855C872 854.7 959 852.3 1046.2 852.5C1133.3 852.7 1220.7 855.3 1307.8 857.3C1395 859.3 1482 860.7 1569.2 861.8C1656.3 863 1743.7 864 1787.3 864.5L1831 865L1831 889L1787.3 889C1743.7 889 1656.3 889 1569.2 889C1482 889 1395 889 1307.8 889C1220.7 889 1133.3 889 1046.2 889C959 889 872 889 784.8 889C697.7 889 610.3 889 523.2 889C436 889 349 889 261.8 889C174.7 889 87.3 889 43.7 889L0 889Z" fill="#c62368"></path></svg>